<?xml version="1.0" encoding="UTF-8" standalone="no" ?>
<!DOCTYPE svg PUBLIC "-//W3C//DTD SVG 1.1//EN" "http://www.w3.org/Graphics/SVG/1.1/DTD/svg11.dtd">
<svg xmlns="http://www.w3.org/2000/svg" xmlns:xlink="http://www.w3.org/1999/xlink" version="1.1" width="536" height="475" viewBox="0 0 536 475" xml:space="preserve">
<desc>Created with Fabric.js 5.2.4</desc>
<defs>
</defs>
<rect x="0" y="0" width="100%" height="100%" fill="transparent"></rect>
<g transform="matrix(0 0 0 0 0 0)" id="6549eb5a-51b3-407f-a714-ea3480b1079a"  >
</g>
<g transform="matrix(1 0 0 1 268 237.5)" id="9d720283-4329-4cef-92f4-fbde3070bb06"  >
<rect style="stroke: none; stroke-width: 1; stroke-dasharray: none; stroke-linecap: butt; stroke-dashoffset: 0; stroke-linejoin: miter; stroke-miterlimit: 4; fill: rgb(255,255,255); fill-rule: nonzero; opacity: 1; visibility: hidden;" vector-effect="non-scaling-stroke"  x="-268" y="-237.5" rx="0" ry="0" width="536" height="475" />
</g>
<g transform="matrix(0.92 0 0 0.92 268 237.5)"  >
<rect style="stroke: none; stroke-width: 1; stroke-dasharray: none; stroke-linecap: butt; stroke-dashoffset: 0; stroke-linejoin: miter; stroke-miterlimit: 4; fill: rgb(255,255,255); fill-rule: nonzero; opacity: 0;" vector-effect="non-scaling-stroke"  x="-259" y="-227.5" rx="0" ry="0" width="518" height="455" />
</g>
<g transform="matrix(0.92 0 0 0.92 150.99 238.16)"  >
<path style="stroke: rgb(95,61,196); stroke-width: 1; stroke-dasharray: none; stroke-linecap: round; stroke-dashoffset: 0; stroke-linejoin: miter; stroke-miterlimit: 4; fill: none; fill-rule: nonzero; opacity: 1;" vector-effect="non-scaling-stroke"  transform=" translate(-121, -217.5)" d="M 32 0 M 32 0 C 88.07 0 144.13 0 210 0 M 32 0 C 68.46 0 104.93 0 210 0 M 210 0 C 231.33 0 242 10.67 242 32 M 210 0 C 231.33 0 242 10.67 242 32 M 242 32 C 242 110.16 242 188.32 242 403 M 242 32 C 242 157.27 242 282.54 242 403 M 242 403 C 242 424.33 231.33 435 210 435 M 242 403 C 242 424.33 231.33 435 210 435 M 210 435 C 154.8 435 99.61 435 32 435 M 210 435 C 148.3 435 86.59 435 32 435 M 32 435 C 10.67 435 0 424.33 0 403 M 32 435 C 10.67 435 0 424.33 0 403 M 0 403 C 0 328.19 0 253.38 0 32 M 0 403 C 0 276.47 0 149.94 0 32 M 0 32 C 0 10.67 10.67 0 32 0 M 0 32 C 0 10.67 10.67 0 32 0" stroke-linecap="round" />
</g>
<g transform="matrix(0.92 0 0 0.92 425.5 139.11)"  >
<path style="stroke: rgb(173,186,199); stroke-width: 1; stroke-dasharray: none; stroke-linecap: round; stroke-dashoffset: 0; stroke-linejoin: miter; stroke-miterlimit: 4; fill: none; fill-rule: nonzero; opacity: 1;" vector-effect="non-scaling-stroke"  transform=" translate(-77.5, -63.5)" d="M 31.75 0 M 31.75 0 C 58.46 0 85.17 0 123.25 0 M 31.75 0 C 68.02 0 104.3 0 123.25 0 M 123.25 0 C 144.42 0 155 10.58 155 31.75 M 123.25 0 C 144.42 0 155 10.58 155 31.75 M 155 31.75 C 155 52.85 155 73.95 155 95.25 M 155 31.75 C 155 51.4 155 71.05 155 95.25 M 155 95.25 C 155 116.42 144.42 127 123.25 127 M 155 95.25 C 155 116.42 144.42 127 123.25 127 M 123.25 127 C 96.33 127 69.41 127 31.75 127 M 123.25 127 C 93.7 127 64.16 127 31.75 127 M 31.75 127 C 10.58 127 0 116.42 0 95.25 M 31.75 127 C 10.58 127 0 116.42 0 95.25 M 0 95.25 C 0 71.77 0 48.3 0 31.75 M 0 95.25 C 0 78.76 0 62.27 0 31.75 M 0 31.75 C 0 10.58 10.58 0 31.75 0 M 0 31.75 C 0 10.58 10.58 0 31.75 0" stroke-linecap="round" />
</g>
<g transform="matrix(0.92 0 0 0.92 425.39 126.8)" style=""  >
		<text xml:space="preserve" font-family="Virgil, Segoe UI Emoji" font-size="20" font-style="normal" font-weight="normal" style="stroke: rgb(173,186,199); stroke-width: 1; stroke-dasharray: none; stroke-linecap: butt; stroke-dashoffset: 0; stroke-linejoin: miter; stroke-miterlimit: 4; fill: rgb(173,186,199); fill-rule: nonzero; opacity: 1; white-space: pre;" ><tspan x="-40.98" y="6.28" >remote-1</tspan></text>
</g>
<g transform="matrix(0.92 0 0 0.92 425.44 149.72)" style=""  >
		<text xml:space="preserve" font-family="Virgil, Segoe UI Emoji" font-size="20" font-style="normal" font-weight="normal" style="stroke: rgb(173,186,199); stroke-width: 1; stroke-dasharray: none; stroke-linecap: butt; stroke-dashoffset: 0; stroke-linejoin: miter; stroke-miterlimit: 4; fill: rgb(173,186,199); fill-rule: nonzero; opacity: 1; white-space: pre;" ><tspan x="-59.29" y="6.28" >(module app)</tspan></text>
</g>
<g transform="matrix(0.92 0 0 0.92 150.86 143.7)"  >
<path style="stroke: rgb(173,186,199); stroke-width: 1; stroke-dasharray: none; stroke-linecap: round; stroke-dashoffset: 0; stroke-linejoin: miter; stroke-miterlimit: 4; fill: none; fill-rule: nonzero; opacity: 1;" vector-effect="non-scaling-stroke"  transform=" translate(-77.5, -63.5)" d="M 31.75 0 M 31.75 0 C 51.67 0 71.58 0 123.25 0 M 31.75 0 C 54.23 0 76.7 0 123.25 0 M 123.25 0 C 144.42 0 155 10.58 155 31.75 M 123.25 0 C 144.42 0 155 10.58 155 31.75 M 155 31.75 C 155 47.7 155 63.66 155 95.25 M 155 31.75 C 155 54.77 155 77.8 155 95.25 M 155 95.25 C 155 116.42 144.42 127 123.25 127 M 155 95.25 C 155 116.42 144.42 127 123.25 127 M 123.25 127 C 94.87 127 66.49 127 31.75 127 M 123.25 127 C 92.12 127 60.99 127 31.75 127 M 31.75 127 C 10.58 127 0 116.42 0 95.25 M 31.75 127 C 10.58 127 0 116.42 0 95.25 M 0 95.25 C 0 73.29 0 51.33 0 31.75 M 0 95.25 C 0 76.7 0 58.16 0 31.75 M 0 31.75 C 0 10.58 10.58 0 31.75 0 M 0 31.75 C 0 10.58 10.58 0 31.75 0" stroke-linecap="round" />
</g>
<g transform="matrix(0.92 0 0 0.92 150.68 131.38)" style=""  >
		<text xml:space="preserve" font-family="Virgil, Segoe UI Emoji" font-size="20" font-style="normal" font-weight="normal" style="stroke: rgb(173,186,199); stroke-width: 1; stroke-dasharray: none; stroke-linecap: butt; stroke-dashoffset: 0; stroke-linejoin: miter; stroke-miterlimit: 4; fill: rgb(173,186,199); fill-rule: nonzero; opacity: 1; white-space: pre;" ><tspan x="-19.15" y="6.28" >host</tspan></text>
</g>
<g transform="matrix(0.92 0 0 0.92 150.69 154.31)" style=""  >
		<text xml:space="preserve" font-family="Virgil, Segoe UI Emoji" font-size="20" font-style="normal" font-weight="normal" style="stroke: rgb(173,186,199); stroke-width: 1; stroke-dasharray: none; stroke-linecap: butt; stroke-dashoffset: 0; stroke-linejoin: miter; stroke-miterlimit: 4; fill: rgb(173,186,199); fill-rule: nonzero; opacity: 1; white-space: pre;" ><tspan x="-22.88" y="6.28" >(app)</tspan></text>
</g>
<g transform="matrix(0.92 0 0 0.92 148.11 326.18)"  >
<path style="stroke: rgb(173,186,199); stroke-width: 1; stroke-dasharray: none; stroke-linecap: round; stroke-dashoffset: 0; stroke-linejoin: miter; stroke-miterlimit: 4; fill: rgb(255,255,255); fill-opacity: 0; fill-rule: nonzero; opacity: 1;" vector-effect="non-scaling-stroke"  transform=" translate(-77.5, -63.5)" d="M 31.75 0 M 31.75 0 C 62.65 0 93.54 0 123.25 0 M 31.75 0 C 54.39 0 77.03 0 123.25 0 M 123.25 0 C 144.42 0 155 10.58 155 31.75 M 123.25 0 C 144.42 0 155 10.58 155 31.75 M 155 31.75 C 155 53.76 155 75.77 155 95.25 M 155 31.75 C 155 45.74 155 59.74 155 95.25 M 155 95.25 C 155 116.42 144.42 127 123.25 127 M 155 95.25 C 155 116.42 144.42 127 123.25 127 M 123.25 127 C 92.04 127 60.84 127 31.75 127 M 123.25 127 C 99.63 127 76.01 127 31.75 127 M 31.75 127 C 10.58 127 0 116.42 0 95.25 M 31.75 127 C 10.58 127 0 116.42 0 95.25 M 0 95.25 C 0 80.54 0 65.83 0 31.75 M 0 95.25 C 0 72.09 0 48.94 0 31.75 M 0 31.75 C 0 10.58 10.58 0 31.75 0 M 0 31.75 C 0 10.58 10.58 0 31.75 0" stroke-linecap="round" />
</g>
<g transform="matrix(0.92 0 0 0.92 147.98 313.86)" style=""  >
		<text xml:space="preserve" font-family="Virgil, Segoe UI Emoji" font-size="20" font-style="normal" font-weight="normal" style="stroke: rgb(173,186,199); stroke-width: 1; stroke-dasharray: none; stroke-linecap: butt; stroke-dashoffset: 0; stroke-linejoin: miter; stroke-miterlimit: 4; fill: rgb(173,186,199); fill-rule: nonzero; opacity: 1; white-space: pre;" ><tspan x="-32.54" y="6.28" >static-1</tspan></text>
</g>
<g transform="matrix(0.92 0 0 0.92 148.05 336.79)" style=""  >
		<text xml:space="preserve" font-family="Virgil, Segoe UI Emoji" font-size="20" font-style="normal" font-weight="normal" style="stroke: rgb(173,186,199); stroke-width: 1; stroke-dasharray: none; stroke-linecap: butt; stroke-dashoffset: 0; stroke-linejoin: miter; stroke-miterlimit: 4; fill: rgb(173,186,199); fill-rule: nonzero; opacity: 1; white-space: pre;" ><tspan x="-59.29" y="6.28" >(module app)</tspan></text>
</g>
<g transform="matrix(0.92 0 0 0.92 421.33 331.71)"  >
<path style="stroke: rgb(173,186,199); stroke-width: 1.5; stroke-dasharray: 8 9; stroke-linecap: round; stroke-dashoffset: 0; stroke-linejoin: miter; stroke-miterlimit: 4; fill: rgb(0,0,0); fill-opacity: 0; fill-rule: nonzero; opacity: 1;" vector-effect="non-scaling-stroke"  transform=" translate(-77.46, -63.54)" d="M 31.75 0 M 31.75 0 C 54.94 1.98 76.71 -0.88 123.25 0 M 123.25 0 C 145.06 0.2 155.55 8.92 155 31.75 M 155 31.75 C 154.61 48.64 155.18 62.95 155 95.25 M 155 95.25 C 156.25 116.53 145.45 127.67 123.25 127 M 123.25 127 C 102.96 126.89 82.68 127.61 31.75 127 M 31.75 127 C 10.47 125.03 -1.8 116.41 0 95.25 M 0 95.25 C 0.53 76.38 0.2 54.93 0 31.75 M 0 31.75 C 0.8 8.81 12.08 -1.54 31.75 0" stroke-linecap="round" />
</g>
<g transform="matrix(0.92 0 0 0.92 421.23 319.37)" style=""  >
		<text xml:space="preserve" font-family="Virgil, Segoe UI Emoji" font-size="20" font-style="normal" font-weight="normal" style="stroke: rgb(173,186,199); stroke-width: 1; stroke-dasharray: none; stroke-linecap: butt; stroke-dashoffset: 0; stroke-linejoin: miter; stroke-miterlimit: 4; fill: rgb(173,186,199); fill-rule: nonzero; opacity: 1; white-space: pre;" ><tspan x="-29.45" y="6.28" >shared</tspan></text>
</g>
<g transform="matrix(0.92 0 0 0.92 421.24 342.29)" style=""  >
		<text xml:space="preserve" font-family="Virgil, Segoe UI Emoji" font-size="20" font-style="normal" font-weight="normal" style="stroke: rgb(173,186,199); stroke-width: 1; stroke-dasharray: none; stroke-linecap: butt; stroke-dashoffset: 0; stroke-linejoin: miter; stroke-miterlimit: 4; fill: rgb(173,186,199); fill-rule: nonzero; opacity: 1; white-space: pre;" ><tspan x="-34.04" y="6.28" >(library)</tspan></text>
</g>
<g transform="matrix(0.92 0 0 0.92 153.38 234.4)"  >
<path style="stroke: rgb(173,186,199); stroke-width: 1; stroke-dasharray: none; stroke-linecap: round; stroke-dashoffset: 0; stroke-linejoin: miter; stroke-miterlimit: 4; fill: rgb(173,186,199); fill-rule: nonzero; opacity: 1;" vector-effect="non-scaling-stroke"  transform=" translate(0, -35)" d="M 0 0 C 0 11.67 0 58.33 0 70 M 0 0 C 0 11.67 0 58.33 0 70" stroke-linecap="round" />
</g>
<g transform="matrix(0.92 0 0 0.92 285.21 239.24)"  >
<path style="stroke: rgb(173,186,199); stroke-width: 1.5; stroke-dasharray: 8 9; stroke-linecap: round; stroke-dashoffset: 0; stroke-linejoin: miter; stroke-miterlimit: 4; fill: rgb(173,186,199); fill-rule: nonzero; opacity: 1;" vector-effect="non-scaling-stroke"  transform=" translate(-76.52, -48.23)" d="M 0.02 -0.1 C 25.54 16.05 127.51 80.2 153.02 96.57" stroke-linecap="round" />
</g>
<g transform="matrix(0.92 0 0 0.92 423.9 235.81)"  >
<path style="stroke: rgb(173,186,199); stroke-width: 1.5; stroke-dasharray: 8 9; stroke-linecap: round; stroke-dashoffset: 0; stroke-linejoin: miter; stroke-miterlimit: 4; fill: rgb(173,186,199); fill-rule: nonzero; opacity: 1;" vector-effect="non-scaling-stroke"  transform=" translate(1, 41.48)" d="M -0.54 1.08 C -0.73 -13.01 -1.46 -70 -1.45 -84.05" stroke-linecap="round" />
</g>
<g transform="matrix(0.92 0 0 0.92 284.69 328.84)"  >
<path style="stroke: rgb(173,186,199); stroke-width: 1.5; stroke-dasharray: 8 9; stroke-linecap: round; stroke-dashoffset: 0; stroke-linejoin: miter; stroke-miterlimit: 4; fill: rgb(173,186,199); fill-rule: nonzero; opacity: 1;" vector-effect="non-scaling-stroke"  transform=" translate(70.03, 0.89)" d="M 1.08 -0.55 C -22.41 -0.94 -117.59 -1.42 -141.15 -1.17" stroke-linecap="round" />
</g>
<g transform="matrix(0.92 0 0 0.92 288.39 143.05)"  >
<path style="stroke: rgb(173,186,199); stroke-width: 1; stroke-dasharray: none; stroke-linecap: round; stroke-dashoffset: 0; stroke-linejoin: miter; stroke-miterlimit: 4; fill: rgb(173,186,199); fill-rule: nonzero; opacity: 1;" vector-effect="non-scaling-stroke"  transform=" translate(-73, 0.5)" d="M 0 0 C 24.33 -0.17 121.67 -0.83 146 -1 M 0 0 C 24.33 -0.17 121.67 -0.83 146 -1" stroke-linecap="round" />
</g>
<g transform="matrix(0 0 0 0 0 0)"  >
<g style=""   >
</g>
</g>
<g transform="matrix(0 0 0 0 0 0)"  >
<g style=""   >
</g>
</g>
<g transform="matrix(0 0 0 0 0 0)"  >
<g style=""   >
</g>
</g>
<g transform="matrix(0 0 0 0 0 0)"  >
<g style=""   >
</g>
</g>
<g transform="matrix(0 0 0 0 0 0)"  >
<g style=""   >
</g>
</g>
<g transform="matrix(0 0 0 0 0 0)"  >
<g style=""   >
</g>
</g>
<g transform="matrix(0 0 0 0 0 0)"  >
<g style=""   >
</g>
</g>
<g transform="matrix(0 0 0 0 0 0)"  >
<g style=""   >
</g>
</g>
<g transform="matrix(0 0 0 0 0 0)"  >
<g style=""   >
</g>
</g>
<g transform="matrix(0 0 0 0 0 0)"  >
<g style=""   >
</g>
</g>
<g transform="matrix(0 0 0 0 0 0)"  >
<g style=""   >
</g>
</g>
<g transform="matrix(0 0 0 0 0 0)"  >
<g style=""   >
</g>
</g>
<g transform="matrix(0 0 0 0 0 0)"  >
<g style=""   >
</g>
</g>
<g transform="matrix(0 0 0 0 0 0)"  >
<g style=""   >
</g>
</g>
<g transform="matrix(0 0 0 0 0 0)"  >
<g style=""   >
</g>
</g>
<g transform="matrix(0 0 0 0 0 0)"  >
<g style=""   >
</g>
</g>
<g transform="matrix(0 0 0 0 0 0)"  >
<g style=""   >
</g>
</g>
<g transform="matrix(0 0 0 0 0 0)"  >
<g style=""   >
</g>
</g>
<g transform="matrix(0 0 0 0 0 0)"  >
<g style=""   >
</g>
</g>
<g transform="matrix(0 0 0 0 0 0)"  >
<g style=""   >
</g>
</g>
<g transform="matrix(0 0 0 0 0 0)"  >
<g style=""   >
</g>
</g>
<g transform="matrix(0 0 0 0 0 0)"  >
<g style=""   >
</g>
</g>
<g transform="matrix(0 0 0 0 0 0)"  >
<g style=""   >
</g>
</g>
<g transform="matrix(0 0 0 0 0 0)"  >
<g style=""   >
</g>
</g>
<g transform="matrix(0 0 0 0 0 0)"  >
<g style=""   >
</g>
</g>
<g transform="matrix(0 0 0 0 0 0)"  >
<g style=""   >
</g>
</g>
<g transform="matrix(0 0 0 0 0 0)"  >
<g style=""   >
</g>
</g>
<g transform="matrix(0 0 0 0 0 0)"  >
<g style=""   >
</g>
</g>
<g transform="matrix(0 0 0 0 0 0)"  >
<g style=""   >
</g>
</g>
<g transform="matrix(0 0 0 0 0 0)"  >
<g style=""   >
</g>
</g>
<g transform="matrix(0 0 0 0 0 0)"  >
<g style=""   >
</g>
</g>
<g transform="matrix(0 0 0 0 0 0)"  >
<g style=""   >
</g>
</g>
<g transform="matrix(0 0 0 0 0 0)"  >
<g style=""   >
</g>
</g>
<g transform="matrix(NaN NaN NaN NaN 0 0)"  >
<g style=""   >
</g>
</g>
<g transform="matrix(NaN NaN NaN NaN 0 0)"  >
<g style=""   >
</g>
</g>
<g transform="matrix(NaN NaN NaN NaN 0 0)"  >
<g style=""   >
</g>
</g>
<g transform="matrix(NaN NaN NaN NaN 0 0)"  >
<g style=""   >
</g>
</g>
<g transform="matrix(NaN NaN NaN NaN 0 0)"  >
<g style=""   >
</g>
</g>
<g transform="matrix(NaN NaN NaN NaN 0 0)"  >
<g style=""   >
</g>
</g>
<g transform="matrix(NaN NaN NaN NaN 0 0)"  >
<g style=""   >
</g>
</g>
<g transform="matrix(NaN NaN NaN NaN 0 0)"  >
<g style=""   >
</g>
</g>
<g transform="matrix(NaN NaN NaN NaN 0 0)"  >
<g style=""   >
</g>
</g>
<g transform="matrix(NaN NaN NaN NaN 0 0)"  >
<g style=""   >
</g>
</g>
<g transform="matrix(NaN NaN NaN NaN 0 0)"  >
<g style=""   >
</g>
</g>
<g transform="matrix(NaN NaN NaN NaN 0 0)"  >
<g style=""   >
</g>
</g>
<g transform="matrix(NaN NaN NaN NaN 0 0)"  >
<g style=""   >
</g>
</g>
<g transform="matrix(NaN NaN NaN NaN 0 0)"  >
<g style=""   >
</g>
</g>
<g transform="matrix(NaN NaN NaN NaN 0 0)"  >
<g style=""   >
</g>
</g>
<g transform="matrix(NaN NaN NaN NaN 0 0)"  >
<g style=""   >
</g>
</g>
<g transform="matrix(NaN NaN NaN NaN 0 0)"  >
<g style=""   >
</g>
</g>
<g transform="matrix(NaN NaN NaN NaN 0 0)"  >
<g style=""   >
</g>
</g>
<g transform="matrix(NaN NaN NaN NaN 0 0)"  >
<g style=""   >
</g>
</g>
<g transform="matrix(NaN NaN NaN NaN 0 0)"  >
<g style=""   >
</g>
</g>
<g transform="matrix(NaN NaN NaN NaN 0 0)"  >
<g style=""   >
</g>
</g>
<g transform="matrix(NaN NaN NaN NaN 0 0)"  >
<g style=""   >
</g>
</g>
<g transform="matrix(NaN NaN NaN NaN 0 0)"  >
<g style=""   >
</g>
</g>
<g transform="matrix(NaN NaN NaN NaN 0 0)"  >
<g style=""   >
</g>
</g>
<g transform="matrix(NaN NaN NaN NaN 0 0)"  >
<g style=""   >
</g>
</g>
<g transform="matrix(NaN NaN NaN NaN 0 0)"  >
<g style=""   >
</g>
</g>
<g transform="matrix(NaN NaN NaN NaN 0 0)"  >
<g style=""   >
</g>
</g>
<g transform="matrix(NaN NaN NaN NaN 0 0)"  >
<g style=""   >
</g>
</g>
<g transform="matrix(NaN NaN NaN NaN 0 0)"  >
<g style=""   >
</g>
</g>
<g transform="matrix(NaN NaN NaN NaN 0 0)"  >
<g style=""   >
</g>
</g>
<g transform="matrix(NaN NaN NaN NaN 0 0)"  >
<g style=""   >
</g>
</g>
<g transform="matrix(NaN NaN NaN NaN 0 0)"  >
<g style=""   >
</g>
</g>
<g transform="matrix(NaN NaN NaN NaN 0 0)"  >
<g style=""   >
</g>
</g>
</svg>